<mxfile host="app.diagrams.net" modified="2023-05-16T09:09:47.927Z" agent="5.0 (Windows NT 10.0; Win64; x64) AppleWebKit/537.36 (KHTML, like Gecko) Chrome/113.0.0.0 Safari/537.36" version="20.6.0" etag="d2yryJ0BAutfMzaeqzaF" type="github">
  <diagram id="3ymdm0bdaS3iQ2bnqJNy" name="Страница 1">
    <mxGraphModel dx="2188" dy="1999" grid="1" gridSize="10" guides="1" tooltips="1" connect="1" arrows="1" fold="1" page="1" pageScale="1" pageWidth="1169" pageHeight="827" math="0" shadow="0">
      <root>
        <mxCell id="0" />
        <mxCell id="1" parent="0" />
        <mxCell id="kIWKygaEWFZ7NyPAExcV-22" value="" style="group" vertex="1" connectable="0" parent="1">
          <mxGeometry x="250" y="380" width="670" height="400" as="geometry" />
        </mxCell>
        <mxCell id="kIWKygaEWFZ7NyPAExcV-2" value="&lt;b&gt;&lt;span style=&quot;white-space: pre;&quot;&gt;	&lt;/span&gt;Тут создаются все зависимости&lt;/b&gt;" style="rounded=1;whiteSpace=wrap;html=1;dashed=1;align=left;" vertex="1" parent="kIWKygaEWFZ7NyPAExcV-22">
          <mxGeometry width="670" height="400" as="geometry" />
        </mxCell>
        <mxCell id="kIWKygaEWFZ7NyPAExcV-3" value="Activity" style="rounded=0;whiteSpace=wrap;html=1;" vertex="1" parent="kIWKygaEWFZ7NyPAExcV-22">
          <mxGeometry x="490" y="55" width="147" height="290" as="geometry" />
        </mxCell>
        <mxCell id="kIWKygaEWFZ7NyPAExcV-4" value="&lt;span style=&quot;font-size: 16px;&quot;&gt;presentation&lt;br style=&quot;font-size: 16px;&quot;&gt;(app)&lt;/span&gt;" style="text;html=1;resizable=0;autosize=1;align=center;verticalAlign=middle;points=[];fillColor=none;strokeColor=none;rounded=0;strokeWidth=2;fontSize=16;fontStyle=1" vertex="1" parent="kIWKygaEWFZ7NyPAExcV-22">
          <mxGeometry x="10" y="20" width="120" height="50" as="geometry" />
        </mxCell>
        <mxCell id="kIWKygaEWFZ7NyPAExcV-60" style="edgeStyle=orthogonalEdgeStyle;rounded=0;orthogonalLoop=1;jettySize=auto;html=1;exitX=1;exitY=0.5;exitDx=0;exitDy=0;entryX=0.002;entryY=0.268;entryDx=0;entryDy=0;entryPerimeter=0;strokeWidth=2;fontSize=16;" edge="1" parent="kIWKygaEWFZ7NyPAExcV-22" source="kIWKygaEWFZ7NyPAExcV-56" target="kIWKygaEWFZ7NyPAExcV-3">
          <mxGeometry relative="1" as="geometry" />
        </mxCell>
        <mxCell id="kIWKygaEWFZ7NyPAExcV-56" value="ViewModel" style="rounded=0;whiteSpace=wrap;html=1;" vertex="1" parent="kIWKygaEWFZ7NyPAExcV-22">
          <mxGeometry x="280" y="55" width="147" height="155" as="geometry" />
        </mxCell>
        <mxCell id="kIWKygaEWFZ7NyPAExcV-23" value="" style="group" vertex="1" connectable="0" parent="1">
          <mxGeometry x="250" y="-40" width="670" height="400" as="geometry" />
        </mxCell>
        <mxCell id="kIWKygaEWFZ7NyPAExcV-8" value="" style="rounded=1;whiteSpace=wrap;html=1;dashed=1;align=left;" vertex="1" parent="kIWKygaEWFZ7NyPAExcV-23">
          <mxGeometry width="670" height="400" as="geometry" />
        </mxCell>
        <mxCell id="kIWKygaEWFZ7NyPAExcV-10" value="domain" style="text;html=1;resizable=0;autosize=1;align=center;verticalAlign=middle;points=[];fillColor=none;strokeColor=none;rounded=0;strokeWidth=2;fontSize=16;fontStyle=1" vertex="1" parent="kIWKygaEWFZ7NyPAExcV-23">
          <mxGeometry x="30" y="30" width="80" height="30" as="geometry" />
        </mxCell>
        <mxCell id="kIWKygaEWFZ7NyPAExcV-11" value="UserRepository&lt;br&gt;&lt;i&gt;interface&lt;/i&gt;" style="rounded=1;whiteSpace=wrap;html=1;strokeWidth=2;fontSize=16;" vertex="1" parent="kIWKygaEWFZ7NyPAExcV-23">
          <mxGeometry x="200" y="140" width="220" height="60" as="geometry" />
        </mxCell>
        <mxCell id="kIWKygaEWFZ7NyPAExcV-12" value="GetUserNameUseCase" style="ellipse;whiteSpace=wrap;html=1;strokeWidth=2;fontSize=16;" vertex="1" parent="kIWKygaEWFZ7NyPAExcV-23">
          <mxGeometry x="100" y="270" width="190" height="100" as="geometry" />
        </mxCell>
        <mxCell id="kIWKygaEWFZ7NyPAExcV-17" style="edgeStyle=orthogonalEdgeStyle;rounded=0;orthogonalLoop=1;jettySize=auto;html=1;strokeWidth=2;fontSize=16;" edge="1" parent="kIWKygaEWFZ7NyPAExcV-23" source="kIWKygaEWFZ7NyPAExcV-11" target="kIWKygaEWFZ7NyPAExcV-12">
          <mxGeometry relative="1" as="geometry" />
        </mxCell>
        <mxCell id="kIWKygaEWFZ7NyPAExcV-13" value="SaveUserNameUseCase" style="ellipse;whiteSpace=wrap;html=1;strokeWidth=2;fontSize=16;" vertex="1" parent="kIWKygaEWFZ7NyPAExcV-23">
          <mxGeometry x="340" y="270" width="190" height="100" as="geometry" />
        </mxCell>
        <mxCell id="kIWKygaEWFZ7NyPAExcV-18" style="edgeStyle=orthogonalEdgeStyle;rounded=0;orthogonalLoop=1;jettySize=auto;html=1;strokeWidth=2;fontSize=16;" edge="1" parent="kIWKygaEWFZ7NyPAExcV-23" source="kIWKygaEWFZ7NyPAExcV-11" target="kIWKygaEWFZ7NyPAExcV-13">
          <mxGeometry relative="1" as="geometry" />
        </mxCell>
        <mxCell id="kIWKygaEWFZ7NyPAExcV-15" value="" style="endArrow=classic;html=1;rounded=0;fontSize=16;exitX=0.589;exitY=1.005;exitDx=0;exitDy=0;exitPerimeter=0;strokeWidth=3;entryX=0.448;entryY=0.1;entryDx=0;entryDy=0;entryPerimeter=0;" edge="1" parent="kIWKygaEWFZ7NyPAExcV-23" source="kIWKygaEWFZ7NyPAExcV-12" target="kIWKygaEWFZ7NyPAExcV-2">
          <mxGeometry width="50" height="50" relative="1" as="geometry">
            <mxPoint x="90" y="290" as="sourcePoint" />
            <mxPoint x="280" y="440" as="targetPoint" />
          </mxGeometry>
        </mxCell>
        <mxCell id="kIWKygaEWFZ7NyPAExcV-16" value="" style="endArrow=classic;html=1;rounded=0;fontSize=16;exitX=0.443;exitY=1.013;exitDx=0;exitDy=0;exitPerimeter=0;strokeWidth=3;entryX=0.582;entryY=0.1;entryDx=0;entryDy=0;entryPerimeter=0;" edge="1" parent="kIWKygaEWFZ7NyPAExcV-23" source="kIWKygaEWFZ7NyPAExcV-13" target="kIWKygaEWFZ7NyPAExcV-2">
          <mxGeometry width="50" height="50" relative="1" as="geometry">
            <mxPoint x="231.90999999999985" y="350.5" as="sourcePoint" />
            <mxPoint x="310.1600000000003" y="470" as="targetPoint" />
          </mxGeometry>
        </mxCell>
        <mxCell id="kIWKygaEWFZ7NyPAExcV-19" value="UserRepository - interface" style="rounded=1;whiteSpace=wrap;html=1;strokeWidth=2;fontSize=16;" vertex="1" parent="kIWKygaEWFZ7NyPAExcV-23">
          <mxGeometry x="437" y="140" width="220" height="60" as="geometry" />
        </mxCell>
        <mxCell id="kIWKygaEWFZ7NyPAExcV-20" value="SaveUserNameParam&lt;br&gt;&lt;i&gt;model&lt;/i&gt;" style="rounded=1;whiteSpace=wrap;html=1;strokeWidth=2;fontSize=16;" vertex="1" parent="kIWKygaEWFZ7NyPAExcV-23">
          <mxGeometry x="437" y="140" width="220" height="60" as="geometry" />
        </mxCell>
        <mxCell id="kIWKygaEWFZ7NyPAExcV-21" value="UserName&lt;br&gt;&lt;i&gt;model&lt;/i&gt;" style="rounded=1;whiteSpace=wrap;html=1;strokeWidth=2;fontSize=16;" vertex="1" parent="kIWKygaEWFZ7NyPAExcV-23">
          <mxGeometry x="437" y="50" width="220" height="60" as="geometry" />
        </mxCell>
        <mxCell id="kIWKygaEWFZ7NyPAExcV-24" value="" style="group" vertex="1" connectable="0" parent="1">
          <mxGeometry x="250" y="-460" width="670" height="400" as="geometry" />
        </mxCell>
        <mxCell id="kIWKygaEWFZ7NyPAExcV-25" value="" style="rounded=1;whiteSpace=wrap;html=1;dashed=1;align=left;" vertex="1" parent="kIWKygaEWFZ7NyPAExcV-24">
          <mxGeometry width="670" height="400" as="geometry" />
        </mxCell>
        <mxCell id="kIWKygaEWFZ7NyPAExcV-26" value="data" style="text;html=1;resizable=0;autosize=1;align=center;verticalAlign=middle;points=[];fillColor=none;strokeColor=none;rounded=0;strokeWidth=2;fontSize=16;fontStyle=1" vertex="1" parent="kIWKygaEWFZ7NyPAExcV-24">
          <mxGeometry x="40" y="30" width="60" height="30" as="geometry" />
        </mxCell>
        <mxCell id="kIWKygaEWFZ7NyPAExcV-27" value="UserRepositoryImpl&lt;br&gt;&lt;i&gt;implementation&lt;/i&gt;" style="rounded=1;whiteSpace=wrap;html=1;strokeWidth=2;fontSize=16;" vertex="1" parent="kIWKygaEWFZ7NyPAExcV-24">
          <mxGeometry x="30" y="90" width="220" height="60" as="geometry" />
        </mxCell>
        <mxCell id="kIWKygaEWFZ7NyPAExcV-51" style="edgeStyle=orthogonalEdgeStyle;rounded=0;orthogonalLoop=1;jettySize=auto;html=1;exitX=-0.002;exitY=0.349;exitDx=0;exitDy=0;strokeWidth=2;fontSize=16;exitPerimeter=0;" edge="1" parent="kIWKygaEWFZ7NyPAExcV-24" source="kIWKygaEWFZ7NyPAExcV-50" target="kIWKygaEWFZ7NyPAExcV-27">
          <mxGeometry relative="1" as="geometry">
            <Array as="points" />
          </mxGeometry>
        </mxCell>
        <mxCell id="kIWKygaEWFZ7NyPAExcV-50" value="" style="rounded=1;whiteSpace=wrap;html=1;strokeWidth=1;fontSize=16;dashed=1;" vertex="1" parent="kIWKygaEWFZ7NyPAExcV-24">
          <mxGeometry x="300" y="50" width="360" height="200" as="geometry" />
        </mxCell>
        <mxCell id="kIWKygaEWFZ7NyPAExcV-38" value="UserStorage&lt;br&gt;&lt;i&gt;interface&lt;/i&gt;" style="rounded=1;whiteSpace=wrap;html=1;strokeWidth=2;fontSize=16;" vertex="1" parent="kIWKygaEWFZ7NyPAExcV-24">
          <mxGeometry x="320" y="90" width="150" height="60" as="geometry" />
        </mxCell>
        <mxCell id="kIWKygaEWFZ7NyPAExcV-39" value="User&lt;br&gt;&lt;i&gt;model&lt;/i&gt;" style="rounded=1;whiteSpace=wrap;html=1;strokeWidth=2;fontSize=16;" vertex="1" parent="kIWKygaEWFZ7NyPAExcV-24">
          <mxGeometry x="490" y="90" width="150" height="60" as="geometry" />
        </mxCell>
        <mxCell id="kIWKygaEWFZ7NyPAExcV-40" value="SharedPrefsUserStorage&lt;br&gt;&lt;i&gt;implementation&lt;/i&gt;" style="rounded=1;whiteSpace=wrap;html=1;strokeWidth=2;fontSize=16;" vertex="1" parent="kIWKygaEWFZ7NyPAExcV-24">
          <mxGeometry x="320" y="160" width="200" height="60" as="geometry" />
        </mxCell>
        <mxCell id="kIWKygaEWFZ7NyPAExcV-53" style="edgeStyle=orthogonalEdgeStyle;rounded=0;orthogonalLoop=1;jettySize=auto;html=1;entryX=1;entryY=0.5;entryDx=0;entryDy=0;strokeWidth=2;fontSize=16;exitX=1;exitY=0.25;exitDx=0;exitDy=0;" edge="1" parent="1" source="kIWKygaEWFZ7NyPAExcV-8" target="kIWKygaEWFZ7NyPAExcV-25">
          <mxGeometry relative="1" as="geometry">
            <Array as="points">
              <mxPoint x="1010" y="60" />
              <mxPoint x="1010" y="-260" />
            </Array>
          </mxGeometry>
        </mxCell>
        <mxCell id="kIWKygaEWFZ7NyPAExcV-54" style="edgeStyle=orthogonalEdgeStyle;rounded=0;orthogonalLoop=1;jettySize=auto;html=1;entryX=1;entryY=0.5;entryDx=0;entryDy=0;strokeWidth=2;fontSize=16;exitX=1;exitY=0.428;exitDx=0;exitDy=0;exitPerimeter=0;" edge="1" parent="1" source="kIWKygaEWFZ7NyPAExcV-8" target="kIWKygaEWFZ7NyPAExcV-2">
          <mxGeometry relative="1" as="geometry">
            <mxPoint x="920" y="200" as="sourcePoint" />
            <Array as="points">
              <mxPoint x="1010" y="131" />
              <mxPoint x="1010" y="580" />
            </Array>
          </mxGeometry>
        </mxCell>
        <mxCell id="kIWKygaEWFZ7NyPAExcV-55" style="edgeStyle=orthogonalEdgeStyle;rounded=0;orthogonalLoop=1;jettySize=auto;html=1;entryX=0;entryY=0.5;entryDx=0;entryDy=0;strokeWidth=2;fontSize=16;exitX=0;exitY=0.5;exitDx=0;exitDy=0;" edge="1" parent="1" source="kIWKygaEWFZ7NyPAExcV-25" target="kIWKygaEWFZ7NyPAExcV-2">
          <mxGeometry relative="1" as="geometry">
            <Array as="points">
              <mxPoint x="160" y="-260" />
              <mxPoint x="160" y="580" />
            </Array>
          </mxGeometry>
        </mxCell>
      </root>
    </mxGraphModel>
  </diagram>
</mxfile>
